<svg xmlns="http://www.w3.org/2000/svg" width="32" height="32" fill="#0d6efd" viewBox="0 0 16 16">
  <path d="M5.525 3.025a3.5 3.5 0 0 1 4.95 0 .5.5 0 1 0 .707-.707 4.5 4.5 0 0 0-6.364 0 .5.5 0 0 0 .707.707"/>
  <path d="M6.94 4.44a1.5 1.5 0 0 1 2.12 0 .5.5 0 0 0 .708-.708 2.5 2.5 0 0 0-3.536 0 .5.5 0 0 0 .708.708m2.12 2.12a.5.5 0 0 0-.708 0l-.708.708a.5.5 0 0 0 0 .708l.708.708a.5.5 0 0 0 .708 0l.708-.708a.5.5 0 0 0 0-.708z"/>
  <path d="M0 10a.5.5 0 0 1 .5-.5h2a.5.5 0 0 1 .5.5v1a.5.5 0 0 1-.5.5h-2a.5.5 0 0 1-.5-.5zm13 0a.5.5 0 0 1 .5-.5h2a.5.5 0 0 1 .5.5v1a.5.5 0 0 1-.5.5h-2a.5.5 0 0 1-.5-.5z"/>
  <path d="M0 13a.5.5 0 0 1 .5-.5h2a.5.5 0 0 1 .5.5v1a.5.5 0 0 1-.5.5h-2a.5.5 0 0 1-.5-.5zm13 0a.5.5 0 0 1 .5-.5h2a.5.5 0 0 1 .5.5v1a.5.5 0 0 1-.5.5h-2a.5.5 0 0 1-.5-.5z"/>
  <path d="M4.5 11a.5.5 0 0 1 .5-.5h6a.5.5 0 0 1 .5.5v1a.5.5 0 0 1-.5.5H5a.5.5 0 0 1-.5-.5z"/>
</svg>
